<svg id="visual" viewBox="0 0 900 600" width="900" height="600" xmlns="http://www.w3.org/2000/svg" xmlns:xlink="http://www.w3.org/1999/xlink" version="1.1"><rect x="0" y="0" width="900" height="600" fill="#ffffff"></rect><path d="M0 407L21.5 423C43 439 86 471 128.8 477C171.7 483 214.3 463 257.2 445.5C300 428 343 413 385.8 423.7C428.7 434.3 471.3 470.7 514.2 473C557 475.3 600 443.7 642.8 435.8C685.7 428 728.3 444 771.2 446.8C814 449.7 857 439.3 878.5 434.2L900 429L900 601L878.5 601C857 601 814 601 771.2 601C728.3 601 685.7 601 642.8 601C600 601 557 601 514.2 601C471.3 601 428.7 601 385.8 601C343 601 300 601 257.2 601C214.3 601 171.7 601 128.8 601C86 601 43 601 21.5 601L0 601Z" fill="#000000" stroke-linecap="round" stroke-linejoin="miter"></path></svg>