<svg id="visual" viewBox="0 0 900 600" width="900" height="600" xmlns="http://www.w3.org/2000/svg" xmlns:xlink="http://www.w3.org/1999/xlink" version="1.1"><rect x="0" y="0" width="900" height="600" fill="#ffffff"></rect><path d="M0 404L15 397.2C30 390.3 60 376.7 90 377.8C120 379 150 395 180 407.5C210 420 240 429 270 431.7C300 434.3 330 430.7 360 417.7C390 404.7 420 382.3 450 378.3C480 374.3 510 388.7 540 396.7C570 404.7 600 406.3 630 412.5C660 418.7 690 429.3 720 426C750 422.7 780 405.3 810 392.5C840 379.7 870 371.3 885 367.2L900 363L900 601L885 601C870 601 840 601 810 601C780 601 750 601 720 601C690 601 660 601 630 601C600 601 570 601 540 601C510 601 480 601 450 601C420 601 390 601 360 601C330 601 300 601 270 601C240 601 210 601 180 601C150 601 120 601 90 601C60 601 30 601 15 601L0 601Z" fill="#ffffff"></path><path d="M0 406L15 405.2C30 404.3 60 402.7 90 406.5C120 410.3 150 419.7 180 422C210 424.3 240 419.7 270 424.8C300 430 330 445 360 453.7C390 462.3 420 464.7 450 466.2C480 467.7 510 468.3 540 463.5C570 458.7 600 448.3 630 437.2C660 426 690 414 720 409.8C750 405.7 780 409.3 810 417.8C840 426.3 870 439.7 885 446.3L900 453L900 601L885 601C870 601 840 601 810 601C780 601 750 601 720 601C690 601 660 601 630 601C600 601 570 601 540 601C510 601 480 601 450 601C420 601 390 601 360 601C330 601 300 601 270 601C240 601 210 601 180 601C150 601 120 601 90 601C60 601 30 601 15 601L0 601Z" fill="#c6c6c6"></path><path d="M0 471L15 472C30 473 60 475 90 475.3C120 475.7 150 474.3 180 466.2C210 458 240 443 270 440.7C300 438.3 330 448.7 360 458.3C390 468 420 477 450 471C480 465 510 444 540 435.3C570 426.7 600 430.3 630 438.5C660 446.7 690 459.3 720 468C750 476.7 780 481.3 810 483.8C840 486.3 870 486.7 885 486.8L900 487L900 601L885 601C870 601 840 601 810 601C780 601 750 601 720 601C690 601 660 601 630 601C600 601 570 601 540 601C510 601 480 601 450 601C420 601 390 601 360 601C330 601 300 601 270 601C240 601 210 601 180 601C150 601 120 601 90 601C60 601 30 601 15 601L0 601Z" fill="#919191"></path><path d="M0 508L15 506C30 504 60 500 90 502C120 504 150 512 180 513.7C210 515.3 240 510.7 270 508C300 505.3 330 504.7 360 507.5C390 510.3 420 516.7 450 518C480 519.3 510 515.7 540 509.5C570 503.3 600 494.7 630 492.2C660 489.7 690 493.3 720 489.5C750 485.7 780 474.3 810 476.2C840 478 870 493 885 500.5L900 508L900 601L885 601C870 601 840 601 810 601C780 601 750 601 720 601C690 601 660 601 630 601C600 601 570 601 540 601C510 601 480 601 450 601C420 601 390 601 360 601C330 601 300 601 270 601C240 601 210 601 180 601C150 601 120 601 90 601C60 601 30 601 15 601L0 601Z" fill="#5e5e5e"></path><path d="M0 551L15 546C30 541 60 531 90 527.8C120 524.7 150 528.3 180 528.3C210 528.3 240 524.7 270 524.7C300 524.7 330 528.3 360 532.2C390 536 420 540 450 536.5C480 533 510 522 540 516.8C570 511.7 600 512.3 630 513.7C660 515 690 517 720 521.2C750 525.3 780 531.7 810 531.5C840 531.3 870 524.7 885 521.3L900 518L900 601L885 601C870 601 840 601 810 601C780 601 750 601 720 601C690 601 660 601 630 601C600 601 570 601 540 601C510 601 480 601 450 601C420 601 390 601 360 601C330 601 300 601 270 601C240 601 210 601 180 601C150 601 120 601 90 601C60 601 30 601 15 601L0 601Z" fill="#303030"></path><path d="M0 551L15 552.2C30 553.3 60 555.7 90 553.5C120 551.3 150 544.7 180 545.5C210 546.3 240 554.7 270 560.5C300 566.3 330 569.7 360 571C390 572.3 420 571.7 450 569.3C480 567 510 563 540 558.8C570 554.7 600 550.3 630 551.2C660 552 690 558 720 560C750 562 780 560 810 557C840 554 870 550 885 548L900 546L900 601L885 601C870 601 840 601 810 601C780 601 750 601 720 601C690 601 660 601 630 601C600 601 570 601 540 601C510 601 480 601 450 601C420 601 390 601 360 601C330 601 300 601 270 601C240 601 210 601 180 601C150 601 120 601 90 601C60 601 30 601 15 601L0 601Z" fill="#000000"></path></svg>