<svg id="visual" viewBox="0 0 900 600" width="900" height="600" xmlns="http://www.w3.org/2000/svg" xmlns:xlink="http://www.w3.org/1999/xlink" version="1.1"><rect x="0" y="0" width="900" height="600" fill="#ffffff"></rect><path d="M0 491L25 492.7C50 494.3 100 497.7 150 506.7C200 515.7 250 530.3 300 522C350 513.7 400 482.3 450 486.8C500 491.3 550 531.7 600 538.3C650 545 700 518 750 497.7C800 477.3 850 463.7 875 456.8L900 450L900 601L875 601C850 601 800 601 750 601C700 601 650 601 600 601C550 601 500 601 450 601C400 601 350 601 300 601C250 601 200 601 150 601C100 601 50 601 25 601L0 601Z" fill="#000000" stroke-linecap="round" stroke-linejoin="miter"></path></svg>